<?xml version="1.0" encoding="UTF-8"?>
<svg id="Livello_2" data-name="Livello 2" xmlns="http://www.w3.org/2000/svg" viewBox="0 0 300 210">
  <defs>
    <style>
      .cls-1 {
        fill: #fad70c;
      }

      .cls-1, .cls-2, .cls-3 {
        stroke-width: 0px;
      }

      .cls-2 {
        fill: #ff448f;
      }

      .cls-3 {
        fill: #46b0fe;
      }
    </style>
  </defs>
  <g id="PULSANTI_E_ICONE" data-name="PULSANTI E ICONE">
    <g>
      <path class="cls-2" d="M96.86,199.1c.53.92.8,1.95.8,3.1s-.27,2.19-.8,3.11c-.53.92-1.26,1.64-2.18,2.15-.92.52-1.94.77-3.05.77s-2.1-.26-3.02-.77c-.92-.51-1.65-1.23-2.19-2.15-.54-.92-.81-1.96-.81-3.11s.27-2.19.81-3.1c.54-.92,1.26-1.63,2.19-2.15.92-.51,1.93-.77,3.02-.77s2.13.26,3.05.77c.92.52,1.65,1.23,2.18,2.15Z"/>
      <path class="cls-2" d="M84.3,201.89v1.51c-.13.92-.45,1.76-.98,2.53-.53.77-1.21,1.38-2.05,1.84-.84.46-1.78.69-2.8.69-1.11,0-2.12-.26-3.04-.77-.92-.51-1.64-1.23-2.18-2.14-.54-.92-.81-1.95-.81-3.1s.27-2.19.81-3.1c.54-.92,1.26-1.63,2.19-2.15.92-.51,1.93-.77,3.03-.77,1.25,0,2.37.31,3.35.92s1.69,1.49,2.13,2.62h-2.32c-.31-.59-.73-1.03-1.27-1.33s-1.17-.45-1.88-.45c-.78,0-1.48.17-2.09.53s-1.09.85-1.44,1.49-.52,1.39-.52,2.24.17,1.6.52,2.25.83,1.15,1.44,1.5c.61.35,1.31.53,2.09.53,1.05,0,1.9-.3,2.56-.89.66-.59,1.06-1.38,1.2-2.39h-4.43v-1.54h6.49Z"/>
      <polygon class="cls-2" points="70.71 206.77 70.71 208.35 64.2 208.35 64.2 196.54 70.71 196.54 70.71 198.12 66.13 198.12 66.13 201.58 70.2 201.58 70.2 203.16 66.13 203.16 66.13 206.77 70.71 206.77"/>
      <path class="cls-2" d="M208.75,151.69h90.46c.38,0,.7.31.7.7v7.35c0,.38-.31.69-.69.69h-90.46c-.38,0-.7-.31-.7-.7v-7.35c0-.38.31-.69.69-.69Z"/>
      <path class="cls-1" d="M300,50.26v7.35c0,.38-.31.7-.7.7h-95.77v101.43c0,.2-.08.37-.2.49s-.3.2-.49.2h-8.12c-.38,0-.7-.31-.7-.7v-50.6h-73.81c-.39,0-.7-.31-.7-.7v-7.35c0-.39.31-.7.7-.7h73.81V.7c0-.38.31-.7.7-.7h8.12c.39,0,.7.31.7.7v48.87h95.77c.38,0,.7.31.7.7Z"/>
      <rect class="cls-2" x="212.59" y="100.24" width="46.94" height="8.74" rx=".7" ry=".7"/>
      <rect class="cls-1" x="105.98" y="49.7" width="9.04" height="160.3" rx=".7" ry=".7"/>
      <path class="cls-3" d="M96.95,50.26l.02,13.51c0,.14-.04.28-.12.4l-43.81,63.9c-.13.19-.34.3-.57.3h-.63c-.23,0-.45-.11-.57-.3L9.21,66.9v92.84c0,.39-.31.7-.7.7H.7c-.39,0-.7-.31-.7-.7V50.26c0-.38.31-.7.7-.7h7.66c.23,0,.45.11.58.31l43.37,63.9,43.37-63.9c.17-.25.49-.37.78-.28s.49.36.49.67Z"/>
      <polygon class="cls-3" points="97.97 158.13 94.07 165.64 94.07 169.92 92.13 169.92 92.13 165.64 88.22 158.13 90.37 158.13 93.1 163.91 95.83 158.13 97.97 158.13"/>
      <polygon class="cls-1" points="96.95 177.33 96.95 189.13 95.02 189.13 89.2 180.33 89.2 189.13 87.27 189.13 87.27 177.33 89.2 177.33 95.02 186.11 95.02 177.33 96.95 177.33"/>
      <polygon class="cls-3" points="86.69 158.13 86.69 169.92 84.76 169.92 84.76 161.84 81.16 169.92 79.82 169.92 76.21 161.84 76.21 169.92 74.27 169.92 74.27 158.13 76.36 158.13 80.5 167.37 84.62 158.13 86.69 158.13"/>
      <polygon class="cls-1" points="84.89 187.55 84.89 189.13 78.38 189.13 78.38 177.33 84.89 177.33 84.89 178.91 80.31 178.91 80.31 182.37 84.38 182.37 84.38 183.94 80.31 183.94 80.31 187.55 84.89 187.55"/>
      <path class="cls-1" d="M75.69,180.13c.51.9.77,1.95.77,3.15s-.26,2.24-.77,3.12c-.52.88-1.24,1.56-2.19,2.03s-2.05.7-3.3.7h-3.85v-11.79h3.85c1.25,0,2.36.24,3.3.72s1.67,1.17,2.19,2.07ZM74.48,183.28c0-1.37-.37-2.44-1.1-3.21-.74-.77-1.79-1.15-3.17-1.15h-1.92v8.63h1.92c1.38,0,2.44-.37,3.17-1.12s1.1-1.8,1.1-3.16Z"/>
      <path class="cls-1" d="M63.66,180.13c.52.9.77,1.95.77,3.15s-.26,2.24-.77,3.12c-.51.88-1.24,1.56-2.19,2.03s-2.04.7-3.3.7h-3.85v-11.79h3.85c1.26,0,2.36.24,3.3.72s1.68,1.17,2.19,2.07ZM62.45,183.28c0-1.37-.37-2.44-1.1-3.21-.74-.77-1.79-1.15-3.17-1.15h-1.92v8.63h1.92c1.38,0,2.44-.37,3.17-1.12s1.1-1.8,1.1-3.16Z"/>
      <rect class="cls-1" x="49.85" y="177.34" width="1.93" height="11.79"/>
      <polygon class="cls-1" points="47.3 177.34 47.3 189.13 45.37 189.13 45.37 183.98 39.82 183.98 39.82 189.13 37.89 189.13 37.89 177.34 39.82 177.34 39.82 182.4 45.37 182.4 45.37 177.34 47.3 177.34"/>
      <g>
        <path class="cls-2" d="M100.22,196.4c.26.15.45.35.6.61s.21.56.21.89-.07.63-.21.9-.34.47-.6.61c-.26.15-.55.22-.88.22s-.62-.07-.88-.22c-.26-.15-.45-.35-.6-.61-.14-.26-.21-.56-.21-.9s.07-.63.21-.89c.14-.26.34-.46.6-.61.26-.15.55-.22.88-.22s.62.07.88.22ZM98.55,196.54c-.23.13-.4.32-.53.55-.12.24-.19.51-.19.81s.06.58.19.81c.12.24.3.42.53.55.23.13.49.2.8.2s.57-.07.8-.2c.23-.13.4-.32.53-.55.12-.24.19-.51.19-.81s-.06-.58-.19-.81c-.12-.24-.3-.42-.53-.55-.23-.13-.49-.2-.8-.2s-.57.07-.8.2Z"/>
        <path class="cls-2" d="M98.9,197.01c-.14.08-.25.2-.34.35-.08.15-.13.33-.13.54s.04.39.13.54c.08.15.2.27.34.35.14.08.3.12.47.12.21,0,.4-.06.56-.18.16-.12.27-.28.32-.48h-.28c-.05.14-.12.24-.23.32-.1.07-.23.11-.38.11-.19,0-.35-.07-.48-.21-.13-.14-.19-.33-.19-.58s.06-.44.19-.58c.13-.14.28-.21.48-.21.14,0,.27.04.38.11s.18.18.23.32h.28c-.06-.21-.16-.37-.32-.48-.16-.11-.35-.17-.56-.17-.17,0-.33.04-.47.12Z"/>
      </g>
    </g>
  </g>
</svg>