<?xml version="1.0" encoding="UTF-8"?>
<svg id="Livello_2" data-name="Livello 2" xmlns="http://www.w3.org/2000/svg" viewBox="0 0 228.57 160">
  <defs>
    <style>
      .cls-1 {
        fill: #fff;
        stroke-width: 0px;
      }
    </style>
  </defs>
  <g id="Footer">
    <g>
      <path class="cls-1" d="M73.8,151.69c.4.7.61,1.49.61,2.37s-.2,1.67-.61,2.37c-.41.7-.96,1.25-1.66,1.64-.7.39-1.48.59-2.32.59s-1.6-.2-2.3-.59c-.7-.39-1.26-.94-1.67-1.64-.41-.7-.62-1.49-.62-2.37s.2-1.67.62-2.37c.41-.7.96-1.24,1.67-1.64.7-.39,1.47-.59,2.3-.59s1.62.2,2.32.59c.7.39,1.26.94,1.66,1.64Z"/>
      <path class="cls-1" d="M64.23,153.82v1.15c-.1.7-.34,1.34-.74,1.93-.4.58-.92,1.05-1.56,1.4-.64.35-1.35.52-2.14.52-.85,0-1.62-.2-2.31-.59-.7-.39-1.25-.93-1.66-1.63-.41-.7-.62-1.49-.62-2.37s.2-1.67.62-2.37c.41-.7.96-1.24,1.67-1.64.7-.39,1.47-.59,2.31-.59.96,0,1.81.23,2.55.7s1.28,1.14,1.62,2h-1.77c-.23-.45-.55-.79-.97-1.01s-.89-.34-1.43-.34c-.59,0-1.13.13-1.59.4s-.83.65-1.09,1.14-.39,1.06-.39,1.71.13,1.22.39,1.71.63.88,1.09,1.14c.46.27,1,.4,1.59.4.8,0,1.45-.23,1.95-.67.5-.45.8-1.05.92-1.82h-3.37v-1.18h4.95Z"/>
      <polygon class="cls-1" points="53.88 157.54 53.88 158.74 48.91 158.74 48.91 149.75 53.88 149.75 53.88 150.95 50.39 150.95 50.39 153.58 53.49 153.58 53.49 154.79 50.39 154.79 50.39 157.54 53.88 157.54"/>
      <path class="cls-1" d="M159.05,115.58h68.92c.29,0,.53.24.53.53v5.6c0,.29-.24.53-.53.53h-68.92c-.29,0-.53-.24-.53-.53v-5.6c0-.29.24-.53.53-.53Z"/>
      <path class="cls-1" d="M228.57,38.3v5.6c0,.29-.24.53-.53.53h-72.97v77.28c0,.15-.06.28-.15.38s-.23.15-.38.15h-6.19c-.29,0-.53-.24-.53-.53v-38.55h-56.24c-.29,0-.53-.24-.53-.53v-5.6c0-.29.24-.53.53-.53h56.24V.53c0-.29.24-.53.53-.53h6.19c.29,0,.53.24.53.53v37.24h72.97c.29,0,.53.24.53.53Z"/>
      <rect class="cls-1" x="161.97" y="76.37" width="35.76" height="6.66" rx=".53" ry=".53"/>
      <rect class="cls-1" x="80.75" y="37.86" width="6.89" height="122.14" rx=".53" ry=".53"/>
      <path class="cls-1" d="M73.86,38.3l.02,10.3c0,.11-.03.21-.09.3l-33.38,48.68c-.1.14-.26.23-.44.23h-.48c-.18,0-.34-.09-.44-.23L7.02,50.97v70.74c0,.29-.24.53-.53.53H.53c-.29,0-.53-.24-.53-.53V38.3c0-.29.24-.53.53-.53h5.84c.18,0,.34.09.44.23l33.04,48.68,33.04-48.68c.13-.19.37-.28.59-.21s.37.27.37.51Z"/>
      <polygon class="cls-1" points="74.64 120.48 71.67 126.2 71.67 129.46 70.2 129.46 70.2 126.2 67.21 120.48 68.85 120.48 70.93 124.89 73.01 120.48 74.64 120.48"/>
      <polygon class="cls-1" points="73.87 135.11 73.87 144.1 72.39 144.1 67.96 137.39 67.96 144.1 66.49 144.1 66.49 135.11 67.96 135.11 72.39 141.8 72.39 135.11 73.87 135.11"/>
      <polygon class="cls-1" points="66.05 120.48 66.05 129.46 64.58 129.46 64.58 123.31 61.84 129.46 60.82 129.46 58.06 123.31 58.06 129.46 56.59 129.46 56.59 120.48 58.18 120.48 61.33 127.52 64.47 120.48 66.05 120.48"/>
      <polygon class="cls-1" points="64.68 142.9 64.68 144.1 59.72 144.1 59.72 135.11 64.68 135.11 64.68 136.31 61.19 136.31 61.19 138.95 64.29 138.95 64.29 140.15 61.19 140.15 61.19 142.9 64.68 142.9"/>
      <path class="cls-1" d="M57.67,137.24c.39.68.59,1.48.59,2.4s-.2,1.71-.59,2.38c-.39.67-.95,1.19-1.67,1.55s-1.56.54-2.51.54h-2.93v-8.98h2.93c.96,0,1.79.18,2.51.55s1.27.89,1.67,1.57ZM56.75,139.64c0-1.04-.28-1.86-.84-2.44-.56-.58-1.36-.88-2.42-.88h-1.46v6.58h1.46c1.05,0,1.86-.28,2.42-.85s.84-1.37.84-2.41Z"/>
      <path class="cls-1" d="M48.51,137.24c.39.68.59,1.48.59,2.4s-.2,1.71-.59,2.38c-.39.67-.95,1.19-1.67,1.55s-1.56.54-2.51.54h-2.93v-8.98h2.93c.96,0,1.79.18,2.51.55s1.28.89,1.67,1.57ZM47.58,139.64c0-1.04-.28-1.86-.84-2.44-.56-.58-1.37-.88-2.42-.88h-1.46v6.58h1.46c1.05,0,1.86-.28,2.42-.85s.84-1.37.84-2.41Z"/>
      <rect class="cls-1" x="37.98" y="135.12" width="1.47" height="8.98"/>
      <polygon class="cls-1" points="36.04 135.12 36.04 144.1 34.57 144.1 34.57 140.17 30.34 140.17 30.34 144.1 28.87 144.1 28.87 135.12 30.34 135.12 30.34 138.97 34.57 138.97 34.57 135.12 36.04 135.12"/>
      <g>
        <path class="cls-1" d="M76.36,149.63c.19.11.35.27.45.47s.16.43.16.68-.05.48-.16.68-.26.36-.45.47c-.2.11-.42.17-.67.17s-.47-.06-.67-.17c-.2-.11-.35-.27-.45-.47-.11-.2-.16-.43-.16-.68s.05-.48.16-.68c.11-.2.26-.35.45-.47.19-.11.42-.17.67-.17s.47.06.67.17ZM75.08,149.74c-.17.1-.31.24-.4.42-.09.18-.14.39-.14.62s.05.44.14.62c.09.18.23.32.4.42.17.1.38.15.61.15s.43-.05.61-.15c.17-.1.31-.24.4-.42.09-.18.14-.39.14-.62s-.05-.44-.14-.62c-.09-.18-.23-.32-.4-.42-.17-.1-.38-.15-.61-.15s-.44.05-.61.15Z"/>
        <path class="cls-1" d="M75.35,150.1c-.11.06-.19.15-.26.27-.06.12-.1.25-.1.41s.03.3.1.41c.06.12.15.21.26.27.11.06.23.09.36.09.16,0,.31-.04.43-.13.12-.09.2-.21.25-.36h-.22c-.04.11-.09.19-.17.24-.08.06-.18.08-.29.08-.15,0-.27-.05-.36-.16-.1-.1-.14-.25-.14-.44s.05-.34.14-.44c.1-.11.22-.16.36-.16.11,0,.2.03.29.08s.14.14.17.24h.22c-.04-.16-.12-.28-.25-.37-.12-.09-.26-.13-.43-.13-.13,0-.25.03-.36.09Z"/>
      </g>
    </g>
  </g>
</svg>
